<?xml version="1.0" encoding="UTF-8" standalone="no"?>
<!DOCTYPE svg PUBLIC "-//W3C//DTD SVG 1.1//EN" "http://www.w3.org/Graphics/SVG/1.1/DTD/svg11.dtd">
<svg width="100%" height="100%" viewBox="0 0 335 123" version="1.1" xmlns="http://www.w3.org/2000/svg" xmlns:xlink="http://www.w3.org/1999/xlink" xml:space="preserve" xmlns:serif="http://www.serif.com/" style="fill-rule:evenodd;clip-rule:evenodd;stroke-linejoin:round;stroke-miterlimit:2;">
    <g transform="matrix(1.03901,0,0,1.1953,0,0)">
        <rect id="ArtBoard1" x="0" y="0" width="321.899" height="102.878" style="fill:none;"/>
        <g id="ArtBoard11" serif:id="ArtBoard1">
            <g transform="matrix(1.45518,0,0,1.26491,98.0251,-110.432)">
                <path d="M61.176,114.145C61.402,114.949 62.109,115.527 62.977,115.527C63.812,115.527 64.516,114.98 64.741,114.242L70.234,95.836C70.301,95.645 70.332,95.484 70.332,95.258C70.332,94.23 69.496,93.395 68.469,93.395C67.441,93.395 66.863,94.133 66.703,94.68L62.945,108.172L59.281,94.746C59.059,93.91 58.285,93.395 57.484,93.395C56.68,93.395 55.91,93.91 55.684,94.746L52.023,108.172L48.266,94.68C48.105,94.133 47.527,93.395 46.496,93.395C45.469,93.395 44.637,94.23 44.637,95.258C44.637,95.484 44.668,95.645 44.73,95.836L50.223,114.242C50.449,114.98 51.156,115.527 51.992,115.527C52.859,115.527 53.562,114.949 53.789,114.145L57.484,100.977L61.176,114.145Z" style="fill:url(#_Linear1);"/>
                <path d="M76.594,96.992L84.754,96.992C85.684,96.992 86.422,96.254 86.422,95.324C86.422,94.391 85.684,93.652 84.754,93.652L74.73,93.652C73.703,93.652 72.867,94.488 72.867,95.516L72.867,113.406C72.867,114.434 73.703,115.27 74.73,115.27L85.105,115.27C86.039,115.27 86.777,114.531 86.777,113.598C86.777,112.668 86.039,111.93 85.105,111.93L76.594,111.93L76.594,106.02L82.664,106.02C83.566,106.02 84.305,105.281 84.305,104.379C84.305,103.48 83.566,102.742 82.664,102.742L76.594,102.742L76.594,96.992Z" style="fill:url(#_Linear2);"/>
                <path d="M107.656,106.242L102.387,106.242L105.02,99.5L107.656,106.242ZM108.906,109.648L110.867,114.305C111.156,114.98 111.766,115.527 112.602,115.527C113.598,115.527 114.434,114.691 114.434,113.695C114.434,113.504 114.398,113.246 114.305,113.02L106.723,94.551C106.531,94.102 106.016,93.395 105.02,93.395C104.023,93.395 103.512,94.102 103.32,94.551L95.738,113.02C95.641,113.246 95.609,113.504 95.609,113.695C95.609,114.691 96.445,115.527 97.441,115.527C98.277,115.527 98.887,114.98 99.176,114.305L101.133,109.648L108.906,109.648Z" style="fill:url(#_Linear3);"/>
                <path d="M122.785,106.98L128.629,114.852C128.949,115.27 129.526,115.527 130.074,115.527C131.102,115.527 131.938,114.691 131.938,113.664C131.938,113.309 131.84,112.926 131.551,112.539L126.797,106.758C129.882,106.371 131.746,103.418 131.746,100.367C131.746,96.734 129.304,93.652 124.969,93.652L118.832,93.652C117.805,93.652 116.969,94.488 116.969,95.516L116.969,113.664C116.969,114.691 117.805,115.527 118.832,115.527C119.859,115.527 120.695,114.691 120.695,113.664L120.695,106.98L122.785,106.98ZM124.934,96.992C127.023,96.992 127.891,98.633 127.891,100.367C127.891,102.066 127.023,103.707 125.031,103.707L120.695,103.707L120.695,96.992L124.934,96.992Z" style="fill:url(#_Linear4);"/>
                <path d="M138.684,96.992L146.84,96.992C147.773,96.992 148.512,96.254 148.512,95.324C148.512,94.391 147.773,93.652 146.84,93.652L136.82,93.652C135.793,93.652 134.957,94.488 134.957,95.516L134.957,113.406C134.957,114.434 135.793,115.27 136.82,115.27L147.195,115.27C148.125,115.27 148.863,114.531 148.863,113.598C148.863,112.668 148.125,111.93 147.195,111.93L138.684,111.93L138.684,106.02L144.754,106.02C145.652,106.02 146.391,105.281 146.391,104.379C146.391,103.48 145.652,102.742 144.754,102.742L138.684,102.742L138.684,96.992Z" style="fill:url(#_Linear5);"/>
                <path d="M48.316,161.438C50.656,161.438 51.941,160.266 51.941,157.812C51.941,155.301 50.656,154.074 48.316,154.074C45.973,154.074 44.637,155.301 44.637,157.812C44.637,160.266 45.973,161.438 48.316,161.438Z" style="fill:url(#_Linear6);"/>
                <path d="M83.059,123.012C81.332,123.012 79.879,124.461 79.879,126.191L79.879,148.277L63.371,124.352C62.816,123.516 61.922,123.012 60.809,123.012C59.078,123.012 57.629,124.461 57.629,126.191L57.629,158.258C57.629,159.988 59.078,161.438 60.809,161.438C62.535,161.438 63.988,159.988 63.988,158.258L63.988,136.285L80.438,160.043C80.996,160.879 82,161.438 83.059,161.438C84.789,161.438 86.238,159.988 86.238,158.258L86.238,126.191C86.238,124.461 84.789,123.012 83.059,123.012Z" style="fill:url(#_Linear7);"/>
                <path d="M99.121,129.258L113.285,129.258C114.902,129.258 116.184,127.977 116.184,126.359C116.184,124.742 114.902,123.457 113.285,123.457L95.887,123.457C94.102,123.457 92.652,124.91 92.652,126.695L92.652,157.758C92.652,159.539 94.102,160.992 95.887,160.992L113.898,160.992C115.516,160.992 116.797,159.707 116.797,158.09C116.797,156.473 115.516,155.191 113.898,155.191L99.121,155.191L99.121,144.93L109.66,144.93C111.223,144.93 112.504,143.648 112.504,142.086C112.504,140.523 111.223,139.242 109.66,139.242L99.121,139.242L99.121,129.258Z" style="fill:url(#_Linear8);"/>
                <path d="M146.02,129.148C147.582,129.148 148.863,127.863 148.863,126.305C148.863,124.742 147.582,123.457 146.02,123.457L122.488,123.457C120.926,123.457 119.645,124.742 119.645,126.305C119.645,127.863 120.926,129.148 122.488,129.148L131.02,129.148L131.02,158.203C131.02,159.988 132.469,161.438 134.254,161.438C136.039,161.438 137.488,159.988 137.488,158.203L137.488,129.148L146.02,129.148Z" style="fill:url(#_Linear9);"/>
            </g>
            <g transform="matrix(1.4413,0,0,1.25284,-60.6553,-25.8531)">
                <path d="M63.527,32.062L60.809,32.062L60.809,34.781L63.527,34.781L63.527,32.062ZM67.371,32.062L64.652,32.062L64.652,34.781L67.371,34.781L67.371,32.062ZM71.215,32.062L68.492,32.062L68.492,34.781L71.215,34.781L71.215,32.062ZM75.055,32.062L72.336,32.062L72.336,34.781L75.055,34.781L75.055,32.062ZM78.898,32.062L76.18,32.062L76.18,34.781L78.898,34.781L78.898,32.062ZM82.742,32.062L80.02,32.062L80.02,34.781L82.742,34.781L82.742,32.062ZM86.582,32.062L83.863,32.062L83.863,34.781L86.582,34.781L86.582,32.062ZM90.426,32.062L87.707,32.062L87.707,34.781L90.426,34.781L90.426,32.062ZM101.953,32.062L99.234,32.062L99.234,34.781L101.953,34.781L101.953,32.062ZM113.48,32.062L110.762,32.062L110.762,34.781L113.48,34.781L113.48,32.062ZM125.008,32.062L122.289,32.062L122.289,34.781L125.008,34.781L125.008,32.062ZM59.684,35.902L56.965,35.902L56.965,38.621L59.684,38.621L59.684,35.902ZM63.527,35.902L60.809,35.902L60.809,38.621L63.527,38.621L63.527,35.902ZM67.371,35.902L64.652,35.902L64.652,38.621L67.371,38.621L67.371,35.902ZM71.215,35.902L68.492,35.902L68.492,38.621L71.215,38.621L71.215,35.902ZM78.898,35.902L76.18,35.902L76.18,38.621L78.898,38.621L78.898,35.902ZM82.742,35.902L80.02,35.902L80.02,38.621L82.742,38.621L82.742,35.902ZM86.582,35.902L83.863,35.902L83.863,38.621L86.582,38.621L86.582,35.902ZM109.637,35.902L106.918,35.902L106.918,38.621L109.637,38.621L109.637,35.902ZM117.32,35.902L114.602,35.902L114.602,38.621L117.32,38.621L117.32,35.902ZM121.164,35.902L118.445,35.902L118.445,38.621L121.164,38.621L121.164,35.902ZM125.008,35.902L122.289,35.902L122.289,38.621L125.008,38.621L125.008,35.902ZM128.852,35.902L126.133,35.902L126.133,38.621L128.852,38.621L128.852,35.902ZM132.695,35.902L129.977,35.902L129.977,38.621L132.695,38.621L132.695,35.902ZM136.535,35.902L133.816,35.902L133.816,38.621L136.535,38.621L136.535,35.902ZM48.156,39.746L45.438,39.746L45.438,42.465L48.156,42.465L48.156,39.746ZM52,39.746L49.281,39.746L49.281,42.465L52,42.465L52,39.746ZM55.844,39.746L53.121,39.746L53.121,42.465L55.844,42.465L55.844,39.746ZM59.684,39.746L56.965,39.746L56.965,42.465L59.684,42.465L59.684,39.746ZM63.527,39.746L60.809,39.746L60.809,42.465L63.527,42.465L63.527,39.746ZM67.371,39.746L64.652,39.746L64.652,42.465L67.371,42.465L67.371,39.746ZM71.215,39.746L68.492,39.746L68.492,42.465L71.215,42.465L71.215,39.746ZM75.055,39.746L72.336,39.746L72.336,42.465L75.055,42.465L75.055,39.746ZM82.742,39.746L80.02,39.746L80.02,42.465L82.742,42.465L82.742,39.746ZM86.582,39.746L83.863,39.746L83.863,42.465L86.582,42.465L86.582,39.746ZM101.953,39.746L99.234,39.746L99.234,42.465L101.953,42.465L101.953,39.746ZM105.793,39.746L103.074,39.746L103.074,42.465L105.793,42.465L105.793,39.746ZM109.637,39.746L106.918,39.746L106.918,42.465L109.637,42.465L109.637,39.746ZM113.48,39.746L110.762,39.746L110.762,42.465L113.48,42.465L113.48,39.746ZM117.32,39.746L114.602,39.746L114.602,42.465L117.32,42.465L117.32,39.746ZM121.164,39.746L118.445,39.746L118.445,42.465L121.164,42.465L121.164,39.746ZM125.008,39.746L122.289,39.746L122.289,42.465L125.008,42.465L125.008,39.746ZM128.852,39.746L126.133,39.746L126.133,42.465L128.852,42.465L128.852,39.746ZM132.695,39.746L129.977,39.746L129.977,42.465L132.695,42.465L132.695,39.746ZM136.535,39.746L133.816,39.746L133.816,42.465L136.535,42.465L136.535,39.746ZM140.379,39.746L137.656,39.746L137.656,42.465L140.379,42.465L140.379,39.746ZM144.223,39.746L141.504,39.746L141.504,42.465L144.223,42.465L144.223,39.746ZM48.156,43.586L45.438,43.586L45.438,46.305L48.156,46.305L48.156,43.586ZM52,43.586L49.281,43.586L49.281,46.305L52,46.305L52,43.586ZM55.844,43.586L53.121,43.586L53.121,46.305L55.844,46.305L55.844,43.586ZM59.684,43.586L56.965,43.586L56.965,46.305L59.684,46.305L59.684,43.586ZM63.527,43.586L60.809,43.586L60.809,46.305L63.527,46.305L63.527,43.586ZM67.371,43.586L64.652,43.586L64.652,46.305L67.371,46.305L67.371,43.586ZM71.215,43.586L68.492,43.586L68.492,46.305L71.215,46.305L71.215,43.586ZM75.055,43.586L72.336,43.586L72.336,46.305L75.055,46.305L75.055,43.586ZM82.742,43.586L80.02,43.586L80.02,46.305L82.742,46.305L82.742,43.586ZM90.426,43.586L87.707,43.586L87.707,46.305L90.426,46.305L90.426,43.586ZM98.109,43.586L95.391,43.586L95.391,46.305L98.109,46.305L98.109,43.586ZM101.953,43.586L99.234,43.586L99.234,46.305L101.953,46.305L101.953,43.586ZM105.793,43.586L103.074,43.586L103.074,46.305L105.793,46.305L105.793,43.586ZM109.637,43.586L106.918,43.586L106.918,46.305L109.637,46.305L109.637,43.586ZM113.48,43.586L110.762,43.586L110.762,46.305L113.48,46.305L113.48,43.586ZM117.32,43.586L114.602,43.586L114.602,46.305L117.32,46.305L117.32,43.586ZM121.164,43.586L118.445,43.586L118.445,46.305L121.164,46.305L121.164,43.586ZM125.008,43.586L122.289,43.586L122.289,46.305L125.008,46.305L125.008,43.586ZM128.852,43.586L126.133,43.586L126.133,46.305L128.852,46.305L128.852,43.586ZM132.695,43.586L129.977,43.586L129.977,46.305L132.695,46.305L132.695,43.586ZM136.535,43.586L133.816,43.586L133.816,46.305L136.535,46.305L136.535,43.586ZM140.379,43.586L137.656,43.586L137.656,46.305L140.379,46.305L140.379,43.586ZM144.223,43.586L141.504,43.586L141.504,46.305L144.223,46.305L144.223,43.586ZM148.062,43.586L145.344,43.586L145.344,46.305L148.062,46.305L148.062,43.586ZM48.156,47.426L45.438,47.426L45.438,50.145L48.156,50.145L48.156,47.426ZM52,47.426L49.281,47.426L49.281,50.145L52,50.145L52,47.426ZM55.844,47.426L53.121,47.426L53.121,50.145L55.844,50.145L55.844,47.426ZM59.684,47.426L56.965,47.426L56.965,50.145L59.684,50.145L59.684,47.426ZM63.527,47.426L60.809,47.426L60.809,50.145L63.527,50.145L63.527,47.426ZM67.371,47.426L64.652,47.426L64.652,50.145L67.371,50.145L67.371,47.426ZM71.215,47.426L68.492,47.426L68.492,50.145L71.215,50.145L71.215,47.426ZM75.055,47.426L72.336,47.426L72.336,50.145L75.055,50.145L75.055,47.426ZM94.27,47.426L91.547,47.426L91.547,50.145L94.27,50.145L94.27,47.426ZM98.109,47.426L95.391,47.426L95.391,50.145L98.109,50.145L98.109,47.426ZM101.953,47.426L99.234,47.426L99.234,50.145L101.953,50.145L101.953,47.426ZM105.793,47.426L103.074,47.426L103.074,50.145L105.793,50.145L105.793,47.426ZM109.637,47.426L106.918,47.426L106.918,50.145L109.637,50.145L109.637,47.426ZM113.48,47.426L110.762,47.426L110.762,50.145L113.48,50.145L113.48,47.426ZM117.32,47.426L114.602,47.426L114.602,50.145L117.32,50.145L117.32,47.426ZM121.164,47.426L118.445,47.426L118.445,50.145L121.164,50.145L121.164,47.426ZM125.008,47.426L122.289,47.426L122.289,50.145L125.008,50.145L125.008,47.426ZM128.852,47.426L126.133,47.426L126.133,50.145L128.852,50.145L128.852,47.426ZM132.695,47.426L129.977,47.426L129.977,50.145L132.695,50.145L132.695,47.426ZM136.535,47.426L133.816,47.426L133.816,50.145L136.535,50.145L136.535,47.426ZM140.379,47.426L137.656,47.426L137.656,50.145L140.379,50.145L140.379,47.426ZM59.684,51.27L56.965,51.27L56.965,53.988L59.684,53.988L59.684,51.27ZM63.527,51.27L60.809,51.27L60.809,53.988L63.527,53.988L63.527,51.27ZM67.371,51.27L64.652,51.27L64.652,53.988L67.371,53.988L67.371,51.27ZM71.215,51.27L68.492,51.27L68.492,53.988L71.215,53.988L71.215,51.27ZM75.055,51.27L72.336,51.27L72.336,53.988L75.055,53.988L75.055,51.27ZM78.898,51.27L76.18,51.27L76.18,53.988L78.898,53.988L78.898,51.27ZM94.27,51.27L91.547,51.27L91.547,53.988L94.27,53.988L94.27,51.27ZM98.109,51.27L95.391,51.27L95.391,53.988L98.109,53.988L98.109,51.27ZM101.953,51.27L99.234,51.27L99.234,53.988L101.953,53.988L101.953,51.27ZM105.793,51.27L103.074,51.27L103.074,53.988L105.793,53.988L105.793,51.27ZM109.637,51.27L106.918,51.27L106.918,53.988L109.637,53.988L109.637,51.27ZM113.48,51.27L110.762,51.27L110.762,53.988L113.48,53.988L113.48,51.27ZM117.32,51.27L114.602,51.27L114.602,53.988L117.32,53.988L117.32,51.27ZM121.164,51.27L118.445,51.27L118.445,53.988L121.164,53.988L121.164,51.27ZM125.008,51.27L122.289,51.27L122.289,53.988L125.008,53.988L125.008,51.27ZM128.852,51.27L126.133,51.27L126.133,53.988L128.852,53.988L128.852,51.27ZM132.695,51.27L129.977,51.27L129.977,53.988L132.695,53.988L132.695,51.27ZM140.379,51.27L137.656,51.27L137.656,53.988L140.379,53.988L140.379,51.27ZM59.684,55.109L56.965,55.109L56.965,57.828L59.684,57.828L59.684,55.109ZM63.527,55.109L60.809,55.109L60.809,57.828L63.527,57.828L63.527,55.109ZM67.371,55.109L64.652,55.109L64.652,57.828L67.371,57.828L67.371,55.109ZM71.215,55.109L68.492,55.109L68.492,57.828L71.215,57.828L71.215,55.109ZM75.055,55.109L72.336,55.109L72.336,57.828L75.055,57.828L75.055,55.109ZM94.27,55.109L91.547,55.109L91.547,57.828L94.27,57.828L94.27,55.109ZM101.953,55.109L99.234,55.109L99.234,57.828L101.953,57.828L101.953,55.109ZM105.793,55.109L103.074,55.109L103.074,57.828L105.793,57.828L105.793,55.109ZM109.637,55.109L106.918,55.109L106.918,57.828L109.637,57.828L109.637,55.109ZM113.48,55.109L110.762,55.109L110.762,57.828L113.48,57.828L113.48,55.109ZM117.32,55.109L114.602,55.109L114.602,57.828L117.32,57.828L117.32,55.109ZM121.164,55.109L118.445,55.109L118.445,57.828L121.164,57.828L121.164,55.109ZM125.008,55.109L122.289,55.109L122.289,57.828L125.008,57.828L125.008,55.109ZM128.852,55.109L126.133,55.109L126.133,57.828L128.852,57.828L128.852,55.109ZM132.695,55.109L129.977,55.109L129.977,57.828L132.695,57.828L132.695,55.109ZM136.535,55.109L133.816,55.109L133.816,57.828L136.535,57.828L136.535,55.109ZM63.527,58.953L60.809,58.953L60.809,61.668L63.527,61.668L63.527,58.953ZM67.371,58.953L64.652,58.953L64.652,61.668L67.371,61.668L67.371,58.953ZM71.215,58.953L68.492,58.953L68.492,61.668L71.215,61.668L71.215,58.953ZM90.426,58.953L87.707,58.953L87.707,61.668L90.426,61.668L90.426,58.953ZM94.27,58.953L91.547,58.953L91.547,61.668L94.27,61.668L94.27,58.953ZM98.109,58.953L95.391,58.953L95.391,61.668L98.109,61.668L98.109,58.953ZM101.953,58.953L99.234,58.953L99.234,61.668L101.953,61.668L101.953,58.953ZM105.793,58.953L103.074,58.953L103.074,61.668L105.793,61.668L105.793,58.953ZM109.637,58.953L106.918,58.953L106.918,61.668L109.637,61.668L109.637,58.953ZM113.48,58.953L110.762,58.953L110.762,61.668L113.48,61.668L113.48,58.953ZM117.32,58.953L114.602,58.953L114.602,61.668L117.32,61.668L117.32,58.953ZM121.164,58.953L118.445,58.953L118.445,61.668L121.164,61.668L121.164,58.953ZM125.008,58.953L122.289,58.953L122.289,61.668L125.008,61.668L125.008,58.953ZM128.852,58.953L126.133,58.953L126.133,61.668L128.852,61.668L128.852,58.953ZM132.695,58.953L129.977,58.953L129.977,61.668L132.695,61.668L132.695,58.953ZM67.371,62.793L64.652,62.793L64.652,65.512L67.371,65.512L67.371,62.793ZM71.215,62.793L68.492,62.793L68.492,65.512L71.215,65.512L71.215,62.793ZM75.055,62.793L72.336,62.793L72.336,65.512L75.055,65.512L75.055,62.793ZM90.426,62.793L87.707,62.793L87.707,65.512L90.426,65.512L90.426,62.793ZM94.27,62.793L91.547,62.793L91.547,65.512L94.27,65.512L94.27,62.793ZM98.109,62.793L95.391,62.793L95.391,65.512L98.109,65.512L98.109,62.793ZM101.953,62.793L99.234,62.793L99.234,65.512L101.953,65.512L101.953,62.793ZM105.793,62.793L103.074,62.793L103.074,65.512L105.793,65.512L105.793,62.793ZM109.637,62.793L106.918,62.793L106.918,65.512L109.637,65.512L109.637,62.793ZM117.32,62.793L114.602,62.793L114.602,65.512L117.32,65.512L117.32,62.793ZM125.008,62.793L122.289,62.793L122.289,65.512L125.008,65.512L125.008,62.793ZM128.852,62.793L126.133,62.793L126.133,65.512L128.852,65.512L128.852,62.793ZM75.055,66.633L72.336,66.633L72.336,69.352L75.055,69.352L75.055,66.633ZM78.898,66.633L76.18,66.633L76.18,69.352L78.898,69.352L78.898,66.633ZM94.27,66.633L91.547,66.633L91.547,69.352L94.27,69.352L94.27,66.633ZM98.109,66.633L95.391,66.633L95.391,69.352L98.109,69.352L98.109,66.633ZM101.953,66.633L99.234,66.633L99.234,69.352L101.953,69.352L101.953,66.633ZM105.793,66.633L103.074,66.633L103.074,69.352L105.793,69.352L105.793,66.633ZM71.215,70.473L68.492,70.473L68.492,73.195L71.215,73.195L71.215,70.473ZM75.055,70.473L72.336,70.473L72.336,73.195L75.055,73.195L75.055,70.473ZM78.898,70.473L76.18,70.473L76.18,73.195L78.898,73.195L78.898,70.473ZM82.742,70.473L80.02,70.473L80.02,73.195L82.742,73.195L82.742,70.473ZM98.109,70.473L95.391,70.473L95.391,73.195L98.109,73.195L98.109,70.473ZM101.953,70.473L99.234,70.473L99.234,73.195L101.953,73.195L101.953,70.473ZM105.793,70.473L103.074,70.473L103.074,73.195L105.793,73.195L105.793,70.473ZM125.008,70.473L122.289,70.473L122.289,73.195L125.008,73.195L125.008,70.473ZM128.852,70.473L126.133,70.473L126.133,73.195L128.852,73.195L128.852,70.473ZM132.695,70.473L129.977,70.473L129.977,73.195L132.695,73.195L132.695,70.473ZM136.535,70.473L133.816,70.473L133.816,73.195L136.535,73.195L136.535,70.473ZM75.055,74.316L72.336,74.316L72.336,77.031L75.055,77.031L75.055,74.316ZM78.898,74.316L76.18,74.316L76.18,77.031L78.898,77.031L78.898,74.316ZM82.742,74.316L80.02,74.316L80.02,77.031L82.742,77.031L82.742,74.316ZM98.109,74.316L95.391,74.316L95.391,77.031L98.109,77.031L98.109,74.316ZM101.953,74.316L99.234,74.316L99.234,77.031L101.953,77.031L101.953,74.316ZM109.637,74.316L106.918,74.316L106.918,77.031L109.637,77.031L109.637,74.316ZM128.852,74.316L126.133,74.316L126.133,77.031L128.852,77.031L128.852,74.316ZM132.695,74.316L129.977,74.316L129.977,77.031L132.695,77.031L132.695,74.316ZM136.535,74.316L133.816,74.316L133.816,77.031L136.535,77.031L136.535,74.316ZM140.379,74.316L137.656,74.316L137.656,77.031L140.379,77.031L140.379,74.316ZM75.055,78.156L72.336,78.156L72.336,80.875L75.055,80.875L75.055,78.156ZM78.898,78.156L76.18,78.156L76.18,80.875L78.898,80.875L78.898,78.156ZM101.953,78.156L99.234,78.156L99.234,80.875L101.953,80.875L101.953,78.156ZM128.852,78.156L126.133,78.156L126.133,80.875L128.852,80.875L128.852,78.156ZM132.695,78.156L129.977,78.156L129.977,80.875L132.695,80.875L132.695,78.156ZM136.535,78.156L133.816,78.156L133.816,80.875L136.535,80.875L136.535,78.156ZM75.055,81.996L72.336,81.996L72.336,84.719L75.055,84.719L75.055,81.996ZM144.223,81.996L141.504,81.996L141.504,84.719L144.223,84.719L144.223,81.996ZM75.055,85.84L72.336,85.84L72.336,88.559L75.055,88.559L75.055,85.84Z" style="fill:url(#_Linear10);"/>
            </g>
        </g>
    </g>
    <defs>
        <linearGradient id="_Linear1" x1="0" y1="0" x2="1" y2="0" gradientUnits="userSpaceOnUse" gradientTransform="matrix(193.5,0,0,193.5,0,96.75)"><stop offset="0" style="stop-color:rgb(68,103,219);stop-opacity:1"/><stop offset="1" style="stop-color:rgb(176,105,179);stop-opacity:1"/></linearGradient>
        <linearGradient id="_Linear2" x1="0" y1="0" x2="1" y2="0" gradientUnits="userSpaceOnUse" gradientTransform="matrix(193.5,0,0,193.5,0,96.75)"><stop offset="0" style="stop-color:rgb(68,103,219);stop-opacity:1"/><stop offset="1" style="stop-color:rgb(176,105,179);stop-opacity:1"/></linearGradient>
        <linearGradient id="_Linear3" x1="0" y1="0" x2="1" y2="0" gradientUnits="userSpaceOnUse" gradientTransform="matrix(193.5,0,0,193.5,0,96.75)"><stop offset="0" style="stop-color:rgb(68,103,219);stop-opacity:1"/><stop offset="1" style="stop-color:rgb(176,105,179);stop-opacity:1"/></linearGradient>
        <linearGradient id="_Linear4" x1="0" y1="0" x2="1" y2="0" gradientUnits="userSpaceOnUse" gradientTransform="matrix(193.5,0,0,193.5,0,96.75)"><stop offset="0" style="stop-color:rgb(68,103,219);stop-opacity:1"/><stop offset="1" style="stop-color:rgb(176,105,179);stop-opacity:1"/></linearGradient>
        <linearGradient id="_Linear5" x1="0" y1="0" x2="1" y2="0" gradientUnits="userSpaceOnUse" gradientTransform="matrix(193.5,0,0,193.5,0,96.75)"><stop offset="0" style="stop-color:rgb(68,103,219);stop-opacity:1"/><stop offset="1" style="stop-color:rgb(176,105,179);stop-opacity:1"/></linearGradient>
        <linearGradient id="_Linear6" x1="0" y1="0" x2="1" y2="0" gradientUnits="userSpaceOnUse" gradientTransform="matrix(193.5,0,0,193.5,0,96.75)"><stop offset="0" style="stop-color:rgb(68,103,219);stop-opacity:1"/><stop offset="1" style="stop-color:rgb(176,105,179);stop-opacity:1"/></linearGradient>
        <linearGradient id="_Linear7" x1="0" y1="0" x2="1" y2="0" gradientUnits="userSpaceOnUse" gradientTransform="matrix(193.5,0,0,193.5,0,96.75)"><stop offset="0" style="stop-color:rgb(68,103,219);stop-opacity:1"/><stop offset="1" style="stop-color:rgb(176,105,179);stop-opacity:1"/></linearGradient>
        <linearGradient id="_Linear8" x1="0" y1="0" x2="1" y2="0" gradientUnits="userSpaceOnUse" gradientTransform="matrix(193.5,0,0,193.5,0,96.75)"><stop offset="0" style="stop-color:rgb(68,103,219);stop-opacity:1"/><stop offset="1" style="stop-color:rgb(176,105,179);stop-opacity:1"/></linearGradient>
        <linearGradient id="_Linear9" x1="0" y1="0" x2="1" y2="0" gradientUnits="userSpaceOnUse" gradientTransform="matrix(193.5,0,0,193.5,0,96.75)"><stop offset="0" style="stop-color:rgb(68,103,219);stop-opacity:1"/><stop offset="1" style="stop-color:rgb(176,105,179);stop-opacity:1"/></linearGradient>
        <linearGradient id="_Linear10" x1="0" y1="0" x2="1" y2="0" gradientUnits="userSpaceOnUse" gradientTransform="matrix(193.5,0,0,193.5,0,96.75)"><stop offset="0" style="stop-color:rgb(68,103,219);stop-opacity:1"/><stop offset="1" style="stop-color:rgb(176,105,179);stop-opacity:1"/></linearGradient>
    </defs>
</svg>
